<?xml version="1.0" encoding="UTF-8" standalone="no"?>
<!-- Created with Inkscape (http://www.inkscape.org/) -->

<svg
   xmlns:dc="http://purl.org/dc/elements/1.1/"
   xmlns:cc="http://creativecommons.org/ns#"
   xmlns:rdf="http://www.w3.org/1999/02/22-rdf-syntax-ns#"
   xmlns:svg="http://www.w3.org/2000/svg"
   xmlns="http://www.w3.org/2000/svg"
   xmlns:sodipodi="http://sodipodi.sourceforge.net/DTD/sodipodi-0.dtd"
   xmlns:inkscape="http://www.inkscape.org/namespaces/inkscape"
   width="135"
   height="135"
   id="svg3573"
   version="1.1"
   inkscape:version="0.48.3.1 r9886"
   sodipodi:docname="camera.svg"
   inkscape:export-filename="/home/dmpop/camera.png"
   inkscape:export-xdpi="90"
   inkscape:export-ydpi="90">
  <defs
     id="defs3575" />
  <sodipodi:namedview
     id="base"
     pagecolor="#ffffff"
     bordercolor="#666666"
     borderopacity="1.0"
     inkscape:pageopacity="0.0"
     inkscape:pageshadow="2"
     inkscape:zoom="0.7"
     inkscape:cx="-5.3564887"
     inkscape:cy="90.002557"
     inkscape:document-units="px"
     inkscape:current-layer="layer1"
     showgrid="false"
     fit-margin-top="0"
     fit-margin-left="0"
     fit-margin-right="0"
     fit-margin-bottom="0"
     inkscape:window-width="1280"
     inkscape:window-height="1004"
     inkscape:window-x="-2"
     inkscape:window-y="-3"
     inkscape:window-maximized="1" />
  <metadata
     id="metadata3578">
    <rdf:RDF>
      <cc:Work
         rdf:about="">
        <dc:format>image/svg+xml</dc:format>
        <dc:type
           rdf:resource="http://purl.org/dc/dcmitype/StillImage" />
        <dc:title></dc:title>
      </cc:Work>
    </rdf:RDF>
  </metadata>
  <g
     inkscape:label="Layer 1"
     inkscape:groupmode="layer"
     id="layer1"
     transform="translate(-191.78506,-487.36474)">
    <path
       inkscape:connector-curvature="0"
       d="m 304.91159,544.85384 c -2.41608,0 -4.37603,-1.95769 -4.37603,-4.37603 0,-2.41381 1.95995,-4.37377 4.37603,-4.37377 2.41607,0 4.37377,1.95996 4.37377,4.37377 0,2.41834 -1.9577,4.37603 -4.37377,4.37603 z m -45.6254,47.51536 c -17.26025,0 -31.2509,-14.00194 -31.2509,-31.25089 0,-17.26251 13.99065,-31.25541 31.2509,-31.25541 17.25573,0 31.25089,13.9929 31.25089,31.25541 0,17.24895 -13.99516,31.25089 -31.25088,31.25089 z m 49.99917,-68.75648 -14.99998,0 c -2.06157,0 -4.28571,-1.60093 -4.93602,-3.55637 l -3.877,-11.63554 c -0.65483,-1.9577 -2.87445,-3.55863 -4.93602,-3.55863 l -42.50031,0 c -2.06382,0 -4.28571,1.60093 -4.93602,3.55863 l -3.877,11.63554 c -0.65483,1.95544 -2.87445,3.55637 -4.93828,3.55637 l -14.99997,0 c -6.87339,0 -12.50036,5.62471 -12.50036,12.50036 l 0,56.25612 c 0,6.87339 5.62697,12.4981 12.50036,12.4981 l 100.0006,0 c 6.87564,0 12.50035,-5.62471 12.50035,-12.4981 l 0,-56.25612 c 0,-6.87565 -5.62471,-12.50036 -12.50035,-12.50036 z m -49.99917,18.75053 c -10.35751,0 -18.75054,8.39755 -18.75054,18.75506 0,10.34847 8.39303,18.75053 18.75054,18.75053 10.35298,0 18.75053,-8.40206 18.75053,-18.75053 0,-10.35751 -8.39755,-18.75506 -18.75052,-18.75506"
       style="fill:#d4aa00;fill-opacity:1;fill-rule:nonzero;stroke:none"
       id="path118" />
  </g>
</svg>
