<?xml version="1.0" encoding="UTF-8" standalone="no"?>
<!-- Created with Inkscape (http://www.inkscape.org/) -->

<svg
   xmlns:dc="http://purl.org/dc/elements/1.1/"
   xmlns:cc="http://creativecommons.org/ns#"
   xmlns:rdf="http://www.w3.org/1999/02/22-rdf-syntax-ns#"
   xmlns:svg="http://www.w3.org/2000/svg"
   xmlns="http://www.w3.org/2000/svg"
   xmlns:sodipodi="http://sodipodi.sourceforge.net/DTD/sodipodi-0.dtd"
   xmlns:inkscape="http://www.inkscape.org/namespaces/inkscape"
   width="60.236217"
   height="60.236217"
   id="svg2"
   version="1.1"
   inkscape:version="0.48.2 r9819"
   sodipodi:docname="favicon.svg"
   inkscape:export-filename="/home/dmpop/bitpocket/pygmyfoto/favicon.png"
   inkscape:export-xdpi="299.9946"
   inkscape:export-ydpi="299.9946">
  <defs
     id="defs4">
    <inkscape:perspective
       sodipodi:type="inkscape:persp3d"
       inkscape:vp_x="0 : 526.18109 : 1"
       inkscape:vp_y="0 : 1000 : 0"
       inkscape:vp_z="744.09448 : 526.18109 : 1"
       inkscape:persp3d-origin="372.04724 : 350.78739 : 1"
       id="perspective10" />
    <inkscape:perspective
       sodipodi:type="inkscape:persp3d"
       inkscape:vp_x="0 : 526.18109 : 1"
       inkscape:vp_y="0 : 1000 : 0"
       inkscape:vp_z="744.09448 : 526.18109 : 1"
       inkscape:persp3d-origin="372.04724 : 350.78739 : 1"
       id="perspective10-3" />
    <inkscape:perspective
       id="perspective2884"
       inkscape:persp3d-origin="0.5 : 0.33333333 : 1"
       inkscape:vp_z="1 : 0.5 : 1"
       inkscape:vp_y="0 : 1000 : 0"
       inkscape:vp_x="0 : 0.5 : 1"
       sodipodi:type="inkscape:persp3d" />
    <inkscape:perspective
       sodipodi:type="inkscape:persp3d"
       inkscape:vp_x="0 : 0.5 : 1"
       inkscape:vp_y="0 : 1000 : 0"
       inkscape:vp_z="1 : 0.5 : 1"
       inkscape:persp3d-origin="0.5 : 0.33333333 : 1"
       id="perspective2831" />
    <inkscape:perspective
       sodipodi:type="inkscape:persp3d"
       inkscape:vp_x="0 : 0.5 : 1"
       inkscape:vp_y="0 : 1000 : 0"
       inkscape:vp_z="1 : 0.5 : 1"
       inkscape:persp3d-origin="0.5 : 0.33333333 : 1"
       id="perspective3605" />
    <inkscape:perspective
       sodipodi:type="inkscape:persp3d"
       inkscape:vp_x="0 : 0.5 : 1"
       inkscape:vp_y="0 : 1000 : 0"
       inkscape:vp_z="1 : 0.5 : 1"
       inkscape:persp3d-origin="0.5 : 0.33333333 : 1"
       id="perspective2827" />
    <inkscape:perspective
       sodipodi:type="inkscape:persp3d"
       inkscape:vp_x="0 : 0.5 : 1"
       inkscape:vp_y="0 : 1000 : 0"
       inkscape:vp_z="1 : 0.5 : 1"
       inkscape:persp3d-origin="0.5 : 0.33333333 : 1"
       id="perspective2902" />
    <inkscape:perspective
       id="perspective10-8"
       inkscape:persp3d-origin="372.04724 : 350.78739 : 1"
       inkscape:vp_z="744.09448 : 526.18109 : 1"
       inkscape:vp_y="0 : 1000 : 0"
       inkscape:vp_x="0 : 526.18109 : 1"
       sodipodi:type="inkscape:persp3d" />
    <inkscape:perspective
       id="perspective2928"
       inkscape:persp3d-origin="0.5 : 0.33333333 : 1"
       inkscape:vp_z="1 : 0.5 : 1"
       inkscape:vp_y="0 : 1000 : 0"
       inkscape:vp_x="0 : 0.5 : 1"
       sodipodi:type="inkscape:persp3d" />
    <inkscape:perspective
       id="perspective2953"
       inkscape:persp3d-origin="0.5 : 0.33333333 : 1"
       inkscape:vp_z="1 : 0.5 : 1"
       inkscape:vp_y="0 : 1000 : 0"
       inkscape:vp_x="0 : 0.5 : 1"
       sodipodi:type="inkscape:persp3d" />
  </defs>
  <sodipodi:namedview
     id="base"
     pagecolor="#ffffff"
     bordercolor="#666666"
     borderopacity="1.0"
     inkscape:pageopacity="0.0"
     inkscape:pageshadow="2"
     inkscape:zoom="1.979899"
     inkscape:cx="87.55158"
     inkscape:cy="20.303636"
     inkscape:document-units="px"
     inkscape:current-layer="layer1"
     showgrid="false"
     units="mm"
     inkscape:showpageshadow="false"
     showguides="true"
     inkscape:guide-bbox="true"
     inkscape:window-width="1280"
     inkscape:window-height="1004"
     inkscape:window-x="-2"
     inkscape:window-y="-3"
     inkscape:window-maximized="1"
     fit-margin-top="0"
     fit-margin-left="0"
     fit-margin-right="0"
     fit-margin-bottom="0" />
  <metadata
     id="metadata7">
    <rdf:RDF>
      <cc:Work
         rdf:about="">
        <dc:format>image/svg+xml</dc:format>
        <dc:type
           rdf:resource="http://purl.org/dc/dcmitype/StillImage" />
        <dc:title></dc:title>
      </cc:Work>
    </rdf:RDF>
  </metadata>
  <g
     inkscape:label="Layer 1"
     inkscape:groupmode="layer"
     id="layer1"
     transform="translate(-3.8199988,-988.0652)">
    <g
       id="g3609"
       transform="matrix(0.85119192,0,0,0.85119192,3.8417041,152.60076)">
      <path
         transform="matrix(0.5085133,0,0,0.5085133,85.694529,1019.4179)"
         d="m -50.002551,40.561566 -7.684039,-2.659683 2.386059,7.773358 -7.344814,-3.488849 1.516444,7.988665 -6.916435,-4.275663 0.628422,8.107 -6.404099,-5.010578 -0.267229,8.126928 -5.814025,-5.684671 -1.159636,8.048206 -5.153378,-6.289759 -2.037966,7.871789 -4.430175,-6.818498 -2.891559,7.599819 -3.653196,-7.26447 -3.710053,7.235598 -2.83187,-7.622261 -4.48351,6.783547 -1.97617,-7.887529 -5.20255,6.249152 -1.09648,-8.057051 -5.85843,5.638901 -0.20349,-8.128773 -6.44319,4.960202 0.69197,-8.101823 -6.94975,4.221293 1.57905,-7.976527 -7.37195,3.431143 2.44694,-7.754407 -7.70466,2.599343 3.28515,-7.438159 -7.94385,1.735991 4.08346,-7.031622 -8.0866,0.851566 4.83221,-6.53973 -8.13121,-0.0432 5.52231,-5.968455 -8.0771,-0.937433 6.14538,-5.3247309 -7.92496,-1.8202909 6.69384,-4.6163719 -7.67661,-2.68105315 7.16105,-3.85197645 -7.33508,-3.509271 7.54134,-3.0408227 -6.90451,-4.294892 7.83008,-2.192758 -6.39013,-5.028377 8.02378,-1.318076 -5.79819,-5.700826 8.12008,-0.427394 -5.13586,-6.304074 8.11782,0.468475 -4.41119,-6.830798 8.01701,1.358657 -3.63297,-7.274606 7.81889,2.232348 -2.81066,-7.630111 7.52586,3.078941 -1.95422,-7.892997 7.14147,3.88816 -1.07407,-8.060071 6.6704,4.650182 -0.18087,-8.129309 6.11835,5.355757 0.71452,-8.099866 5.49204,5.99632 1.60123,-7.972103 4.79907,6.564096 2.46851,-7.747568 4.04783,7.052192 3.305824,-7.428989 3.247465,7.454685 4.103012,-7.020232 2.407678,7.766688 4.850392,-6.52626 1.538666,7.984415 5.538895,-5.953067 0.650976,8.10522 6.160165,-5.307611 -0.244616,8.12764 6.706657,-4.597729 -1.137238,8.0514 7.171741,-3.832036 -2.016057,7.877428 7.549769,-3.019828 -2.870402,7.607835 7.836152,-2.170963 -3.689905,7.245893 8.027416,-1.295746 -4.464618,6.795995 8.121238,-0.4048 -5.185136,6.263604 8.116479,0.49106 -5.842714,5.65518 8.013197,1.380959 -6.429369,4.978111 7.812645,2.254094 -6.93798,4.2406139 7.517259,3.0998691 -7.362373,3.4516411 7.130623,3.90801529 -7.697398,2.62077031 6.657431,4.6687235 -7.938986,1.758087 6.103427,5.3727598 -8.084205,0.874063 5.475335,6.011577 -8.131294,-0.02057 4.780781,6.577424 -8.079679,-0.914956 4.028194,7.063428 -7.929989,-1.798233 z"
         inkscape:randomized="0"
         inkscape:rounded="0"
         inkscape:flatsided="false"
         sodipodi:arg2="0.80309814"
         sodipodi:arg1="0.74798248"
         sodipodi:r2="59.480915"
         sodipodi:r1="66.832489"
         sodipodi:cy="-4.895298"
         sodipodi:cx="-98.994949"
         sodipodi:sides="57"
         id="path2829"
         style="fill:#ffba00;fill-opacity:1;stroke:none"
         sodipodi:type="star" />
      <g
         transform="matrix(0.58135552,-0.13661699,0.13661699,0.58135552,-129.0014,429.72255)"
         id="g3603">
        <path
           style="fill:#b3b3b3;stroke:none"
           d="m 10.775745,1045.7189 -2.4337317,-35.3599 4.5197897,-5.2874 21.556008,-5.94839 5.562832,-9.91399 12.864075,0 4.519815,6.60933 17.731537,7.93115 -0.347672,39.6559 -63.972653,2.3133 z"
           id="path3738"
           inkscape:connector-curvature="0" />
        <path
           sodipodi:type="arc"
           style="fill:#cccccc;fill-opacity:1;stroke:none"
           id="path3707"
           sodipodi:cx="25.316948"
           sodipodi:cy="20.15646"
           sodipodi:rx="6.8816643"
           sodipodi:ry="6.5659914"
           d="m 32.198612,20.15646 c 0,3.626297 -3.081026,6.565991 -6.881664,6.565991 -3.800638,0 -6.881664,-2.939694 -6.881664,-6.565991 0,-3.626297 3.081026,-6.565992 6.881664,-6.565992 3.800638,0 6.881664,2.939695 6.881664,6.565992 z"
           transform="matrix(2.5211124,0,0,2.5211124,-11.698189,969.81705)" />
        <g
           transform="matrix(0.44820635,0,0,0.44820635,-115.49209,802.81121)"
           id="layer1-9"
           inkscape:label="Layer 1"
           style="fill:#4d4d4d">
          <path
             id="path2890"
             d="m 296.71544,548.46613 c -4.53052,-0.48367 -8.94331,-1.66094 -11.48851,-3.06495 -3.71571,-2.0497 -4.30349,-2.91311 -5.82755,-8.5604 -0.93226,-3.45443 -1.92599,-11.0985 -2.20829,-16.98683 -0.28229,-5.88833 -0.80572,-12.50606 -1.16316,-14.70606 -0.35745,-2.2 -0.71889,-12.55 -0.80321,-23 -0.1428,-17.6988 -0.006,-19.27394 1.99725,-23 5.67721,-10.55957 12.04298,-15.32505 23.94807,-17.92777 7.79315,-1.70376 14.23642,-3.74339 20.90138,-6.61638 1.65,-0.71125 4.11378,-1.47124 5.47508,-1.68887 4.8166,-1.7173 5.45074,-5.86089 7.83358,-10.26698 2.93936,-5.62922 10.65262,-12.01927 18.12876,-15.01878 4.53105,-1.8179 16.94284,-1.87258 20.66111,-0.091 8.97372,3.23345 13.9645,10.84208 18.40147,18.86027 3.13356,4.3299 4.07223,4.31178 13.52097,7.28403 5.48847,1.72648 11.34009,3.74798 13.0036,4.49222 6.74523,3.01776 11.38812,9.32863 14.00083,19.03072 2.05678,7.63766 3.06328,44.8664 1.69325,62.63026 -1.19011,15.43103 -2.60662,18.39517 -10.47608,21.92185 -4.91931,2.20457 -6.53745,2.35906 -26.24257,2.50542 -24.16614,0.1795 -59.59817,2.02331 -64,3.33042 -4.2024,1.2479 -28.52068,1.81611 -37.35598,0.87285 z m 33.35598,-12.33985 c 2.75,-0.1938 8.6,-0.86861 13,-1.49958 4.4,-0.63096 22.00898,-1.30591 39.13107,-1.49989 33.58449,-0.38049 37.45381,-0.94176 39.26102,-5.69509 0.84695,-2.22767 2.77918,-26.71374 2.35027,-29.78383 -0.11525,-0.825 -0.23051,-6.45 -0.25613,-12.5 -0.0482,-11.38537 -2.2263,-26.13941 -4.50262,-30.5 -3.30065,-6.32282 -13.24196,-11.59998 -24.31122,-12.90515 -8.22028,-0.96924 -13.47319,-5.17788 -15.60184,-12.50018 -1.67144,-5.74953 -2.12462,-6.29721 -7.85097,-9.48811 -4.14956,-2.31226 -10.61069,-2.75575 -14.03532,-0.96336 -6.23373,3.26261 -10.28801,6.6831 -12.68426,18.3247 -0.52899,2.56995 -3.37744,4.40822 -7.21482,5.5667 -1.20335,0.36328 -7.46018,1.87106 -13.78518,4.11562 -6.325,2.24457 -13.19032,4.30153 -15.25627,4.57104 -8.42718,1.60202 -12.74591,5.0665 -17.87756,11.717 0,0 -2.19023,2.78539 -2.61036,4.45425 -1.38163,5.48812 0.0724,18.25684 0.0724,18.25684 0.34396,9.3316 0.82951,17.29683 1.079,17.70051 0.24949,0.40368 0.74858,6.74998 1.1091,14.10287 0.76203,15.54223 1.38269,17.76379 5.19832,18.60681 11.27592,2.46675 23.33056,0.6093 34.78537,-0.0812 z m 28.16222,-12.02689 c -8.92585,-3.27373 -18.07818,-12.78181 -22.09061,-22.94927 -5.46499,-13.84822 -5.94215,-26.73415 -1.30457,-35.23086 2.43017,-4.45242 19.57242,-15.94419 28.13901,-18.86375 7.2111,-2.4576 17.89943,-1.46808 28.09395,2.60091 9.1736,3.6615 13.39958,7.21022 17.85253,14.99147 6.56411,11.47035 7.32998,21.70163 2.55195,34.09148 -6.52326,16.91538 -22.27492,27.02017 -41.83598,26.83806 -4.16268,-0.0388 -9.2955,-0.70387 -11.40628,-1.47804 z m 40.08672,-24.88264 c 5.01396,-9.40713 3.42478,-21.93101 -2.81449,-31.11378 -3.46118,-5.09406 -15.85431,-11.3938 -22.50631,-11.44053 -6.77338,-0.0476 -23.58561,8.34482 -25.73049,14.76967 -6.64086,19.89228 0.11893,21.9477 4.57737,31.67419 2.55886,4.51795 8.88622,9.35058 13.84823,10.57683 14.48616,2.3141 24.31592,-3.67891 32.62569,-14.46638 z m -90.18073,19.5065 c -1.49559,-1.65261 -1.79993,-4.65615 -2.15311,-21.25 -0.51487,-24.19059 0.68179,-32.63786 4.90961,-34.65704 2.24953,-1.07436 3.41361,-1.10514 5.71675,-0.15115 3.29778,1.36599 4.08912,3.19742 3.23323,7.48283 -0.90173,4.51497 -0.88792,34.27773 0.0186,40.06012 0.68403,4.36328 0.5019,5.43056 -1.32258,7.75 -2.59798,3.30281 -7.76223,3.6827 -10.4025,0.76524 z"
             style="fill:#4d4d4d"
             sodipodi:nodetypes="cssssssssccsccssssssscccsssssssssssssccscssccccsssssscccsssccccssssscc"
             inkscape:connector-curvature="0" />
        </g>
      </g>
    </g>
  </g>
</svg>
